<svg width="800" height="672" viewBox="0 0 800 672" fill="none" xmlns="http://www.w3.org/2000/svg">
<path d="M17.3333 365.551L150.647 498.884C161.748 509.985 176.84 516.247 192.563 516.247C208.286 516.247 223.378 510.005 234.459 498.884L367.793 365.551C390.923 342.42 390.923 304.889 367.793 281.758C344.662 258.607 307.131 258.607 284 281.758L247.812 317.946C257.057 206.558 350.449 118.716 464.188 118.716C583.97 118.716 681.472 216.198 681.472 336C681.472 455.783 583.97 553.284 464.188 553.284C431.457 553.284 404.928 579.812 404.928 612.543C404.928 645.274 431.457 671.802 464.188 671.802C649.333 671.802 799.99 521.165 799.99 336C799.99 150.835 649.333 0.19754 464.188 0.19754C287.674 0.19754 142.884 137.146 129.649 310.281L101.165 281.758C78.0148 258.607 40.4839 258.607 17.3729 281.758C-5.77777 304.869 -5.77783 342.4 17.3333 365.551Z" fill="#1E40AF"/>
</svg>
